<svg width="24" height="24" viewBox="0 0 24 24" fill="none" xmlns="http://www.w3.org/2000/svg">
<path d="M9 20.4C8.66863 20.4 8.4 20.1313 8.4 19.8C8.4 19.4687 8.66863 19.2 9 19.2H16.8C18.1255 19.2 19.2 18.1255 19.2 16.8V7.2C19.2 5.87452 18.1255 4.8 16.8 4.8H9C8.66863 4.8 8.4 4.53137 8.4 4.2C8.4 3.86863 8.66863 3.6 9 3.6H16.8C18.7883 3.6 20.4 5.21178 20.4 7.2V16.8C20.4 18.7883 18.7883 20.4 16.8 20.4H9ZM9.17574 7.37574C9.41005 7.14142 9.78995 7.14142 10.0243 7.37574L14.2243 11.5757C14.4586 11.8101 14.4586 12.19 14.2243 12.4243L10.0243 16.6243C9.78995 16.8586 9.41005 16.8586 9.17574 16.6243C8.94142 16.39 8.94142 16.01 9.17574 15.7757L12.3515 12.6H1.8C1.46863 12.6 1.2 12.3313 1.2 12C1.2 11.6686 1.46863 11.4 1.8 11.4H12.3515L9.17574 8.22426C8.94142 7.98995 8.94142 7.61005 9.17574 7.37574Z" fill="white"/>
</svg>
