<svg width="24" height="24" viewBox="0 0 24 24" fill="none" xmlns="http://www.w3.org/2000/svg">
<path d="M20.4 17.4V12.4804C20.8294 12.2609 21.2315 11.9958 21.6 11.6914V17.4C21.6 19.0568 20.2568 20.4 18.6 20.4H5.4C3.74315 20.4 2.4 19.0568 2.4 17.4V7.8C2.4 6.14315 3.74315 4.8 5.4 4.8H11.0484C10.9391 5.18674 10.864 5.58791 10.8269 6H5.4C4.40589 6 3.6 6.80588 3.6 7.8V8.1624L12 13.1039L13.7297 12.0862C14.1192 12.3473 14.5381 12.568 14.9803 12.7423L12.3042 14.3172C12.1477 14.4092 11.9599 14.4246 11.793 14.3632L11.6958 14.3172L3.6 9.5556V17.4C3.6 18.3941 4.40589 19.2 5.4 19.2H18.6C19.5941 19.2 20.4 18.3941 20.4 17.4ZM17.4 12C14.4176 12 12 9.58234 12 6.6C12 3.61766 14.4176 1.2 17.4 1.2C20.3824 1.2 22.8 3.61766 22.8 6.6C22.8 9.58234 20.3824 12 17.4 12ZM14.5757 7.02426L16.9752 9.42379L16.9783 9.42681C17.0352 9.48307 17.1006 9.52563 17.1703 9.55447C17.24 9.58338 17.3164 9.59952 17.3964 9.59999L17.4 9.6L17.4036 9.59999C17.4836 9.59952 17.56 9.58338 17.6297 9.55447C17.7005 9.52519 17.7667 9.48179 17.8243 9.42426L20.2243 7.02426C20.4586 6.78995 20.4586 6.41005 20.2243 6.17574C19.99 5.94142 19.61 5.94142 19.3757 6.17574L18 7.55147V4.2C18 3.86863 17.7313 3.6 17.4 3.6C17.0687 3.6 16.8 3.86863 16.8 4.2V7.55147L15.4243 6.17574C15.19 5.94142 14.81 5.94142 14.5757 6.17574C14.3414 6.41005 14.3414 6.78995 14.5757 7.02426Z" fill="white"/>
</svg>
